<svg class="svg-canvas" viewBox="0 0 800 600" width="1600" height="1200" preserveAspectRatio="none" version="1.1" xmlns="http://www.w3.org/2000/svg" xmlns:xlink="http://www.w3.org/1999/xlink">
        <!--滤镜-->
        <defs></defs>

        <!-- 背景 -->
        <g id="background">
            <rect x="0" y="0" fill="#ffffff" width="800" height="600"></rect>
            
          </g>

        <!--元素-->
        
                <g id="shape_2Acb7h9xc3" ref="shape_2Acb7h9xc3" key="shape_2Acb7h9xc3" mask="">
                  <g transform="translate(134.70734393272,229.38204767915) rotate(0,73.407156828395,53.235904641686) scale(1,1)" style="opacity: 1;mix-blend-mode: undefined;" filter="">
                    <!--普通元素-->
                    <svg version="1.1" id="图层_1" xmlns="http://www.w3.org/2000/svg" xmlns:xlink="http://www.w3.org/1999/xlink" x="0px" y="0px" width="146.81431365679" height="106.47180928337" viewBox="0 0 173.99 126.18" style="enable-background:new 0 0 173.99 126.18;" xml:space="preserve" class="style-removed" preserveAspectRatio="none" data-parent="shape_2Acb7h9xc3">

<g>
	<path d="M0,92.77c12.49-11.75,26.65-22.53,40.33-31.75c0.43-3.28,0.96-6.57,1.58-9.81C16.74,71.08,0,92.77,0,92.77z" fill="#DE1D28" stroke-width="0"></path>
	<path d="M150.93,6.56c-14.05,1-27.45,3.73-43.66,9.46c2.22,2.41,4.48,4.99,6.69,7.58c13.18-3.98,21.19-4.52,29.29-5.5
		c14.7-1.76,14.76,5.33,9.48,12.82c-6.56,9.31-16.47,21.07-16.47,21.07s11.56,12.42,22.9,1.11c3.8-3.79,5.5-6.91,7.75-9.91
		C176.54,30.31,180.55,4.45,150.93,6.56z" fill="#DE1D28" stroke-width="0"></path>
	<path d="M68.25,36.74c-0.42,3.69-0.75,7.32-1.01,10.9c11.09-7.61,20.8-13.42,26.65-16.21
		c-1.58-2.58-3.12-5.05-4.6-7.34C82.14,27.69,74.91,32.11,68.25,36.74z" fill="#DE1D28" stroke-width="0"></path>
	
		<ellipse transform="matrix(0.1553 -0.9879 0.9879 0.1553 -71.5507 149.1334)" cx="51.43" cy="116.41" rx="9.77" ry="9.77" fill="#DE1D28" stroke-width="0"></ellipse>
	<path d="M129.33,49.15c-3.07-4.12-10.86-16.16-18.12-24.68h0c-2.21-2.59-4.47-5.16-6.69-7.58
		c-3.8-4.13-7.48-7.79-10.6-10.27c-14.56-11.54-28.8-7.82-38.48,9.66c-4.88,8.82-8.63,20.8-11.03,33.4
		c-0.62,3.24-1.14,6.53-1.58,9.81c-1.22,9.24-1.7,18.45-1.36,26.68c0.69,16.45,22.74,16.82,22.59-2.66
		c-0.09-11.62-0.16-24.36,0.99-37.96c0.3-3.57,0.7-7.21,1.19-10.9c0.65-4.89,1.47-9.86,2.54-14.93c2.19-10.36,9.36-12.45,16.24-4.57
		c1.76,2.01,3.69,4.44,5.73,7.11c1.74,2.29,3.56,4.76,5.41,7.34c0,0,0,0,0,0c9.19,12.75,17,26.19,24.25,33.75
		c7.91,8.25,25.98,7.46,34.61-4.04C155.04,59.33,141.89,66,129.33,49.15z" fill="#DE1D28" stroke-width="0"></path>
</g>
</svg>
                  </g>
                </g>
                <g id="shape_oRHmCqomdy" ref="shape_oRHmCqomdy" key="shape_oRHmCqomdy" mask="">
                  <g transform="translate(41.53283942451,129.68995232084) rotate(0,397.71158208955,186.928) scale(1,1)" style="opacity: 1;mix-blend-mode: undefined;" filter="">
                    <!--普通元素-->
                    <svg xmlns="http://www.w3.org/2000/svg" version="1.1" xmlns:xlink="http://www.w3.org/1999/xlink" width="795.4231641791" height="373.856" viewBox="0 0 795.4231641791 373.856" data-ligature="true" data-parent="shape_oRHmCqomdy"><g data-role="text" data-width="466.98832000000004" data-height="62" transform="translate(155.928, 155.928)"><path d="M24.33-34.67L31.66-34.67L31.66 0L24.33 0L24.33-14.35L10.92-14.35L10.92 0L3.53 0L3.53-34.67L10.92-34.67L10.92-20.53L24.33-20.53L24.33-34.67Z" transform="translate(0 49) " fill="#de1d28" stroke="#de1d28" stroke-width="0.087" data-glyph-w="35.19046" data-glyph-h="51.98" data-glyph-ascender="44.650819999999996" data-glyph-descender="-7.32918" data-kerning="0"></path><path d="M1.92-5.98L23.75-28.49L1.92-28.49L1.92-34.67L32.02-34.67L32.02-28.28L10.92-6.19L32.02-6.19L32.02 0L1.92 0L1.92-5.98Z" transform="translate(35.19046 49) " fill="#de1d28" stroke="#de1d28" stroke-width="0.087" data-glyph-w="33.99492" data-glyph-h="51.98" data-glyph-ascender="44.650819999999996" data-glyph-descender="-7.32918" data-kerning="0"></path><path d="M10.45-20.48L31.14-20.48L31.14-14.29L10.45-14.29L10.45 0L3.12 0L3.12-18.09Q3.17-25.89 4.57-28.33L4.57-28.33Q6.34-31.76 9.69-33.22Q13.05-34.67 19.13-34.67L19.13-34.67L31.14-34.67L31.14-28.49L20.06-28.49Q14.92-28.38 13.46-27.65L13.46-27.65Q10.55-26.46 10.45-22.35L10.45-22.35L10.45-20.48Z" transform="translate(69.18538000000001 49) " fill="#de1d28" stroke="#de1d28" stroke-width="0.087" data-glyph-w="33.05928" data-glyph-h="51.98" data-glyph-ascender="44.650819999999996" data-glyph-descender="-7.32918" data-kerning="0"></path><path d="M0,0Z" transform="translate(102.24466000000001 49) " fill="#de1d28" stroke="#de1d28" stroke-width="0.087" data-glyph-w="25.99" data-glyph-h="51.98" data-glyph-ascender="44.650819999999996" data-glyph-descender="-7.32918" data-kerning="0"></path><path d="M11.23 0L11.23-28.49L0.21-28.49L0.21-34.67L30.10-34.67L30.10-28.49L18.61-28.49L18.61 0L11.23 0Z" transform="translate(128.23466000000002 49) " fill="#de1d28" stroke="#de1d28" stroke-width="0.087" data-glyph-w="30.35632" data-glyph-h="51.98" data-glyph-ascender="44.650819999999996" data-glyph-descender="-7.32918" data-kerning="0"></path><path d="M17.10-34.67L29.52-34.67L29.52-28.49L19.91-28.49Q16.17-28.49 14.45-27.97Q12.74-27.45 11.59-25.94L11.59-25.94Q10.81-24.90 10.53-23.86Q10.24-22.82 10.03-20.32L10.03-20.32L29.52-20.32L29.52-14.14L10.03-14.14Q10.45-9.67 12.68-7.93Q14.92-6.19 20.27-6.19L20.27-6.19L29.52-6.19L29.52 0L19.91 0Q16.01 0 13.05-0.47L13.05-0.47Q8.37-1.25 5.61-4.57L5.61-4.57Q1.66-9.36 1.66-17.52L1.66-17.52Q1.66-26.56 7.23-31.60L7.23-31.60Q9.15-33.32 11.31-33.99Q13.46-34.67 17.10-34.67L17.10-34.67Z" transform="translate(158.59098000000003 49) " fill="#de1d28" stroke="#de1d28" stroke-width="0.087" data-glyph-w="31.81176" data-glyph-h="51.98" data-glyph-ascender="44.650819999999996" data-glyph-descender="-7.32918" data-kerning="0"></path><path d="M19.28-6.19L29.89-6.19L29.89 0L17.78 0Q14.35 0 12.53-0.36L12.53-0.36Q6.13-1.61 3.43-7.49L3.43-7.49Q1.66-11.44 1.66-17.26L1.66-17.26Q1.66-24.22 4.37-28.59L4.37-28.59Q6.34-31.76 9.64-33.22Q12.94-34.67 18.14-34.67L18.14-34.67L29.89-34.67L29.89-28.49L18.97-28.49Q14.03-28.49 11.75-25.83L11.75-25.83Q9.82-23.65 9.82-17.93L9.82-17.93Q9.82-10.24 12.79-7.85L12.79-7.85Q14.87-6.19 19.28-6.19L19.28-6.19Z" transform="translate(190.40274000000002 49) " fill="#de1d28" stroke="#de1d28" stroke-width="0.087" data-glyph-w="31.499879999999997" data-glyph-h="51.98" data-glyph-ascender="44.650819999999996" data-glyph-descender="-7.32918" data-kerning="0"></path><path d="M24.33-34.67L31.66-34.67L31.66 0L24.33 0L24.33-14.35L10.92-14.35L10.92 0L3.53 0L3.53-34.67L10.92-34.67L10.92-20.53L24.33-20.53L24.33-34.67Z" transform="translate(221.90262 49) " fill="#de1d28" stroke="#de1d28" stroke-width="0.087" data-glyph-w="35.19046" data-glyph-h="51.98" data-glyph-ascender="44.650819999999996" data-glyph-descender="-7.32918" data-kerning="0"></path><path d="M24.74 0L10.60-25.42L10.60 0L3.53 0L3.53-34.67L12.99-34.67L26.77-8.84L26.77-34.67L33.79-34.67L33.79 0L24.74 0Z" transform="translate(257.09308 49) " fill="#de1d28" stroke="#de1d28" stroke-width="0.087" data-glyph-w="37.32164" data-glyph-h="51.98" data-glyph-ascender="44.650819999999996" data-glyph-descender="-7.32918" data-kerning="0"></path><path d="M18.76-34.88L18.76-34.88Q23.96-34.88 27.91-33.11L27.91-33.11Q32.54-30.98 34.41-25.99L34.41-25.99Q35.87-22.09 35.87-16.84L35.87-16.84Q35.87-11.54 34.10-7.64L34.10-7.64Q31.86-3.01 27.24-1.14L27.24-1.14Q23.81 0.21 19.34 0.21L19.34 0.21Q13.46 0.21 9.15-1.98L9.15-1.98Q5.51-3.79 3.59-7.69Q1.66-11.59 1.66-17.15L1.66-17.15Q1.66-27.08 6.60-31.29L6.60-31.29Q10.76-34.83 18.76-34.88ZM18.82-29.06L18.82-29.06Q13.72-29.06 11.54-25.73L11.54-25.73Q9.77-23.13 9.77-17.36L9.77-17.36Q9.77-11.28 11.96-8.42L11.96-8.42Q14.14-5.61 18.87-5.61L18.87-5.61Q23.44-5.61 25.60-8.47Q27.76-11.33 27.76-17.31L27.76-17.31Q27.76-22.77 25.99-25.63L25.99-25.63Q23.96-29.00 18.82-29.06Z" transform="translate(294.41472 49) " fill="#de1d28" stroke="#de1d28" stroke-width="0.087" data-glyph-w="37.52956" data-glyph-h="51.98" data-glyph-ascender="44.650819999999996" data-glyph-descender="-7.32918" data-kerning="0"></path><path d="M3.12-15.18L3.12-34.67L10.45-34.67L10.45-15.18Q10.60-11.49 10.76-10.29L10.76-10.29Q11.12-7.90 13.05-7.04Q14.97-6.19 19.80-6.19L19.80-6.19L26.87-6.19L26.87 0L19.02 0Q13.46 0 10.97-0.62L10.97-0.62Q5.25-2.29 3.69-7.90L3.69-7.90Q3.12-10.08 3.12-15.18L3.12-15.18Z" transform="translate(331.94428 49) " fill="#de1d28" stroke="#de1d28" stroke-width="0.087" data-glyph-w="27.65336" data-glyph-h="51.98" data-glyph-ascender="44.650819999999996" data-glyph-descender="-7.32918" data-kerning="0"></path><path d="M18.76-34.88L18.76-34.88Q23.96-34.88 27.91-33.11L27.91-33.11Q32.54-30.98 34.41-25.99L34.41-25.99Q35.87-22.09 35.87-16.84L35.87-16.84Q35.87-11.54 34.10-7.64L34.10-7.64Q31.86-3.01 27.24-1.14L27.24-1.14Q23.81 0.21 19.34 0.21L19.34 0.21Q13.46 0.21 9.15-1.98L9.15-1.98Q5.51-3.79 3.59-7.69Q1.66-11.59 1.66-17.15L1.66-17.15Q1.66-27.08 6.60-31.29L6.60-31.29Q10.76-34.83 18.76-34.88ZM18.82-29.06L18.82-29.06Q13.72-29.06 11.54-25.73L11.54-25.73Q9.77-23.13 9.77-17.36L9.77-17.36Q9.77-11.28 11.96-8.42L11.96-8.42Q14.14-5.61 18.87-5.61L18.87-5.61Q23.44-5.61 25.60-8.47Q27.76-11.33 27.76-17.31L27.76-17.31Q27.76-22.77 25.99-25.63L25.99-25.63Q23.96-29.00 18.82-29.06Z" transform="translate(359.59764 49) " fill="#de1d28" stroke="#de1d28" stroke-width="0.087" data-glyph-w="37.52956" data-glyph-h="51.98" data-glyph-ascender="44.650819999999996" data-glyph-descender="-7.32918" data-kerning="0"></path><path d="M16.27-14.40L16.27-20.58L33.27-20.58L33.27 0L17.78 0Q13.77 0 11.41-0.60Q9.04-1.20 7.12-2.70L7.12-2.70Q1.66-6.91 1.66-17.21L1.66-17.21Q1.66-23.91 4.26-28.38L4.26-28.38Q6.19-31.66 9.51-33.16Q12.84-34.67 18.14-34.67L18.14-34.67L33.27-34.67L33.27-28.49L18.97-28.49Q14.35-28.49 12.27-26.46L12.27-26.46Q9.77-24.07 9.77-17.88L9.77-17.88Q9.77-14.71 10.42-12.16Q11.07-9.62 12.22-8.37L12.22-8.37Q13.20-7.23 14.94-6.71Q16.69-6.19 19.23-6.19L19.23-6.19L25.94-6.19L25.94-14.40L16.27-14.40Z" transform="translate(397.1272 49) " fill="#de1d28" stroke="#de1d28" stroke-width="0.087" data-glyph-w="35.91818" data-glyph-h="51.98" data-glyph-ascender="44.650819999999996" data-glyph-descender="-7.32918" data-kerning="0"></path><path d="M12.94 0L12.94-15.18L0.10-34.67L8.73-34.67L16.69-21.10L25.05-34.67L33.84-34.67L20.32-14.92L20.32 0L12.94 0Z" transform="translate(433.04538 49) " fill="#de1d28" stroke="#de1d28" stroke-width="0.087" data-glyph-w="33.94294" data-glyph-h="51.98" data-glyph-ascender="44.650819999999996" data-glyph-descender="-7.32918" data-kerning="0"></path></g></svg>
                  </g>
                </g>
      </svg>