<svg xmlns="http://www.w3.org/2000/svg" xmlns:xlink="http://www.w3.org/1999/xlink" version="1.1" preserveAspectRatio="none" viewBox="0 0 800 600" width="1600" height="1200" style="background:#de1d28;">
      <path transform="translate(0, 0)" fill="#ffffff" fill-rule="evenodd" d="M134.7073439327,307.6622010094L142.84759493443437,300.3873815292828L151.346201036075,293.4661707238875L160.0330820025781,286.9452417739985L168.73815759890002,280.8712678604L170.0713756894,272.59350237399997L162.45400604595588,278.9141750316215L158.92107740183638,282.0558532125565L155.58568162372814,285.1463466367094L152.45809027233824,288.15659581043144L149.54857490837384,291.0575412400739L146.86740709254207,293.82012343198795L144.42485838555,296.415282892525L142.23120034810486,298.8139601280363L140.29670454091368,300.9870956448731L138.63164252468368,302.9056299493866L137.24628586012187,304.5405035479281L136.1509061079355,305.862656946849L135.35577482883164,306.8430306525004L134.87116358351744,307.45256517123363ZM262.0634239386,234.9174341817L253.22900825659843,235.84074572128281L244.32656048056253,237.4119442957625L239.76429002047013,238.47189684587673L235.08237009269533,239.73149590446093L230.2465868825135,241.20329972143026L225.2227265752,242.8998665467L230.8678082371,249.2959381458L234.84251081540236,248.1662230341377L238.46024266781248,247.2702693618203L241.77301670342263,246.56971019210215L244.832845831325,246.02617858823749L250.401721000375,245.25673033108592L255.5829714477,244.6549890964L257.76586968539505,244.4623035994927L259.6707312365182,244.43419792305724L261.3090513495139,244.5602274596357L262.69232527282657,244.8299476017703L263.83204825490077,245.23291374200315L264.739715544181,245.75868127287634L265.42682238911175,246.3968055869321L265.9048640381375,247.13684207671247L266.1853357397026,247.96834613475966L266.2797327422518,248.8808731536158L265.9562836440797,250.90721764392345L265.0264787311771,253.13231868797246L263.5822799911,255.47261942609998L261.3958590159832,258.4920544981725L259.0755492976906,261.56478796949216L256.752470831384,264.55030587842515L254.557743612225,267.30809426333747L252.62248763537542,269.69763916259507L251.0778228959969,271.5784266145641L250.49293723884733,272.28412568480474L250.05486938925117,272.80994265761035L249.78000934660366,273.1383132877769L249.6847471103,273.2516733301L249.79663007499948,273.36703989069963L250.12257187041152,273.6833508104002L250.64801184850648,274.1559229460542L251.3583893612547,274.7400731545141L253.2757143985924,276.0643752172615L255.7580617981875,277.2987918534625L258.68894637580286,278.0858579179369L260.2861884862941,278.19992662790787L261.9518829472015,278.06810826550463L263.6714691104954,277.6457196875798L265.43038632814626,276.88807775098576L267.21407395212435,275.75049931257496L269.0079713344,274.1883012292L271.11551595244066,271.88852639201565L272.768194825575,269.75724964815004L275.5474904495,265.826154851L277.0097499141359,263.66844109578506L278.32624221220584,261.3046410208791L279.4623456330721,258.7853708008839L280.3834384660969,256.1612466104016L281.0548990006423,253.48288462403383L281.4421055260707,250.80090101638262L281.5104363317442,248.1659119620499L281.225269707025,245.6285336356375L280.55198394127535,243.2393822117474L279.45595732385743,241.04907386498144L277.9025681441335,239.10822476994156L275.8571946914657,237.4674511012297L273.2852152552162,236.1773690334477L270.1520081247473,235.28859474119747L266.42295158942113,234.85174439908093L264.3241605103623,234.8186082638859ZM192.2973025917,260.3835873294L191.4450555844,269.5811045365L194.8955748336295,267.2462918524281L198.21240310740467,265.06593575391247L201.37101720904315,263.05210007157814L204.3468939418625,261.21684863605L207.11551010918026,259.5722452779531L209.65234251431406,258.1303538279125L211.9328679605814,256.9032381165531L213.9325632513,255.9029619745L211.960159905275,252.714419025325L210.0510422281,249.70940451579997L205.52202970543595,252.109381661925L201.0191225211875,254.720574727925ZM176.8307382487,335.7491900606L179.10990567665047,335.7977835602428L181.19857975280405,335.2622359377204L183.02665435964403,334.2293254724656L184.52402337965378,332.7858304439113L185.62058069531665,331.0185291314906L186.24622018911597,329.0141998146363L186.33083574353506,326.85962077278134L185.80432124105727,324.6415702853588L184.76482089351651,322.7368333851507L183.29193459942195,321.1919409663365L181.47199349755573,320.0766378654438L179.39132872669998,319.460668919L177.1121612987495,319.41207541935717L175.02348722259592,319.9476230418796L173.19541261575594,320.9805335071344L171.69804359574619,322.42402853568865L170.60148628008332,324.1913298481094L169.975846786284,326.1956591649637L169.8912312318649,328.35023820681863L170.4177457343427,330.5682886942412L171.45724608188345,332.47302559444927L172.93013237597802,334.01791801326345L174.75007347784424,335.1332211141562ZM243.837151308,270.8552560027L242.6876759054736,269.2571610189385L241.21672908192653,267.14566104658286L239.4762248625943,264.6338792187139L237.51807727271247,261.8349386684125L233.15650808224217,255.82807393283596L230.8569145321248,252.84639601372248L228.5473337124,250.0300519045L222.90225205049998,243.6339803055L220.52218352094684,241.10400384783125L218.21489351057497,238.7789147431L216.0151891372406,236.71487902239375L213.9578775188,234.96806271679998L211.65831692996716,233.29285892493488L209.3703257524703,231.9175945940949L207.09914483076173,230.84041565195042L204.85001500929377,230.05946802617186L202.62817713251877,229.57289764442962L200.43887204488905,229.3788504343941L198.287340590857,229.47547232373574L196.178823614875,229.86090924012498L194.1185619613953,230.53330711123218L192.1117964748703,231.49081186472773L190.16376799975234,232.73156942828206L188.27971738049374,234.25372572956562L186.46488546154683,236.05542669624876L184.72451308736402,238.13481825600195L183.06384110239762,240.49004633649554L181.48811035109998,243.1192568654L179.98899810879743,246.03095797464704L178.58145231861718,249.1675209760453L177.2676484254252,252.50382936976774L176.0497618740875,256.0147666559875L173.91044257643904,263.4600619066109L172.18089798459997,271.3024747293L170.84767989409997,279.5802402157L170.19372798257496,285.4105643042234L169.78026161272496,291.1562438106374L169.61360935141246,296.74212700318276L169.70009976549997,302.09306215009997L170.01150975401106,304.5359033885014L170.6915093216777,306.65607423911325L171.6862562080438,308.44891480014655L172.94190815265313,309.9097651698125L174.40462289504956,311.03396544632216L176.02055817477697,311.8168557278867L177.73587173137915,312.2537761127173L179.49672130439998,312.340066699025L181.24926463338332,312.07106758502096L182.939659457873,311.4421188689164L184.51406351741292,310.44856064892235L185.91863455154686,309.08573302325L187.0995302998187,307.34897609011045L188.00290850177225,305.2336299477148L188.57492689695138,302.73503469427425L188.76174322489996,299.84853042799995L188.72377182359685,292.3209638078656L188.78705749244995,284.45956528452496L189.04652873475305,276.28490270034683L189.59711405379997,267.8175438976999L190.60124666629997,258.6200266905999L191.53998408769996,252.3779502190874L192.74452131829997,246.0219595435999L193.62579073776288,243.0736714070593L194.8489016529031,240.79640912810618L196.361742270773,239.20698296253119L198.11220079842496,238.32220316612492L200.04816544291128,238.15887999467805L202.11752441128434,238.73382370398116L204.26816591059645,240.0638445498249L206.44797814789996,242.1657527879999L208.77689076178748,244.9566507845499L211.28300324849997,248.1652341955999L213.53069925406248,251.1702487051249L215.84800949529998,254.35879165429992L221.45643820739997,262.4502599529593L226.69306361494998,270.2403302536999L229.19222127032342,273.8599244187627L231.62275352852498,277.2092690010405L233.99276886587654,280.2233973060979L236.3103757587,282.8373426394999L237.65827810211584,284.0528745189814L239.1828858990408,285.08756018341626L240.85997260436608,285.9393354322773L242.6653116729828,286.6061360650374L244.57467655978215,287.08589788116933L246.56384071965527,287.376556680146L250.6846606781875,287.3823084245249L254.83395918770879,286.606877693957L256.85872153631817,285.92105839925006L258.81792388734846,285.03375088422496L260.6873396956905,283.94289094835455L262.4427424162357,282.64641439111165L264.05990550387514,281.14225701196915L265.5146024135,279.42835461039994L265.3903713270904,279.49106139668095L265.0226881832986,279.6479921387617L264.4285610056297,279.86185526184914L263.624997817589,280.09535919115L261.45759550441306,280.4721231692195L260.12777242628823,280.54080006840184L258.65654543181245,280.479951474625L257.06092254449095,280.25228581309585L255.35791178782907,279.8205115090211L253.5645211853319,279.14733698760773L251.69775876050466,278.1954706740625L249.77463253685264,276.9276209935923L247.81215053788105,275.3064963714039L245.8273207870951,273.2948052327042ZM221.7908394245,299.9479523208L229.1208394245,299.9479523208L229.1208394245,334.6179523208L221.7908394245,334.6179523208L221.7908394245,320.2679523208L208.3808394245,320.2679523208L208.3808394245,334.6179523208L200.9908394245,334.6179523208L200.9908394245,299.9479523208L208.3808394245,299.9479523208L208.3808394245,314.0879523208L221.7908394245,314.0879523208ZM234.5712994245,328.6379523208L256.4012994245,306.1279523208L234.5712994245,306.1279523208L234.5712994245,299.9479523208L264.6712994245,299.9479523208L264.6712994245,306.3379523208L243.5712994245,328.4279523208L264.6712994245,328.4279523208L264.6712994245,334.6179523208L234.5712994245,334.6179523208ZM277.0962194245,314.1379523208L297.7862194245,314.1379523208L297.7862194245,320.3279523208L277.0962194245,320.3279523208L277.0962194245,334.6179523208L269.7662194245,334.6179523208L269.7662194245,316.5279523208L269.87559442450004,312.9629523208L270.1537194245,310.06795232080003L270.60059442450006,307.8429523208L271.2162194245,306.2879523208L272.1999694245,304.6960773208L273.38121942450005,303.3504523208L274.7599694245,302.2510773208L276.3362194245,301.3979523208L278.1862194245,300.7635773208001L280.37621942450005,300.31045232080004L282.9062194245,300.0385773208001L285.7762194245,299.9479523208L297.7862194245,299.9479523208L297.7862194245,306.1279523208L286.7062194245,306.1279523208L284.36621942449995,306.2217023208L282.48621942449995,306.39295232079996L281.0662194245,306.64170232080005L280.1062194245,306.9679523208L278.8268444245,307.7454523208L277.89871942450003,308.88795232079997L277.3218444245,310.3954523208L277.0962194245,312.2679523208ZM299.7054994245,334.6179523208ZM336.9254994245,334.6179523208L336.9254994245,306.1279523208L325.9054994245,306.1279523208L325.9054994245,299.9479523208L355.7954994245,299.9479523208L355.7954994245,306.1279523208L344.3054994245,306.1279523208L344.3054994245,334.6179523208ZM373.1518194245,299.9479523208L385.5718194245,299.9479523208L385.5718194245,306.1279523208L375.9618194245,306.1279523208L374.21806942449996,306.1604523208L372.7268194245,306.2579523208L371.4880694245,306.4204523208L370.5018194245,306.6479523208L368.93181942449996,307.4154523208L367.6418194245,308.6779523208L366.98681942449997,309.7179523208L366.5818194245,310.7579523208L366.31181942449996,312.16295232079995L366.0818194245,314.2979523208L385.5718194245,314.2979523208L385.5718194245,320.4779523208L366.0818194245,320.4779523208L366.4049444245,322.54232732080004L366.95431942450006,324.2654523208L367.72994442450005,325.6473273208L368.7318194245,326.6879523208L370.04619442449996,327.44920232079994L371.74931942449996,327.9929523208L373.84119442450003,328.31920232079995L376.3218194245,328.4279523208L385.5718194245,328.4279523208L385.5718194245,334.6179523208L375.9618194245,334.6179523208L372.2968194245,334.5004523208L369.1018194245,334.1479523208L366.88181942449995,333.5992023208L364.9018194245,332.73295232079994L363.1618194245,331.54920232079996L361.6618194245,330.0479523208L359.9336944245,327.4423273208L358.6993194245,324.4154523208L357.9586944245,320.96732732080005L357.7118194245,317.0979523208L357.79885067450004,314.9004523208L358.05994442450003,312.8279523208L358.4951006745,310.88045232080003L359.1043194245,309.05795232080004L359.88760067449994,307.36045232080005L360.8449444245,305.78795232080006L361.97635067449994,304.34045232080007L363.2818194245,303.0179523208L365.2618194245,301.5604523208L367.3618194245,300.6279523208L368.5299444245,300.33045232079996L369.8843194245,300.1179523208L371.4249444245,299.99045232080005ZM407.1435794245,328.4279523208L417.7535794245,328.4279523208L417.7535794245,334.6179523208L405.6435794245,334.6179523208L404.0292044245,334.5954523208L402.61607942449996,334.5279523208L401.4042044245,334.4154523208L400.3935794245,334.2579523208L397.4248294245,333.3435773208L394.9185794245,331.8504523208L392.87482942450004,329.7785773208L391.2935794245,327.1279523208L390.51920442450006,325.0360773208L389.96607942450004,322.71045232079996L389.6342044245,320.1510773208L389.5235794245,317.3579523208L389.69295442450004,314.0398273208L390.2010794245,311.0454523208L391.04795442450006,308.37482732079997L392.2335794245,306.0279523208L393.30170442450003,304.5498273208L394.53607942450003,303.2854523208L395.9367044245,302.2348273207999L397.5035794245,301.3979523208L399.2723294245,300.7635773208001L401.2785794245,300.31045232080004L403.52232942449996,300.0385773208001L406.0035794245,299.9479523208L417.7535794245,299.9479523208L417.7535794245,306.1279523208L406.8335794245,306.1279523208L404.5298294245,306.2942023208L402.5585794245,306.7929523208L400.91982942450005,307.6242023208L399.6135794245,308.7879523208L398.7692044245,310.0992023208L398.1660794245,311.85295232079994L397.80420442449997,314.04920232079996L397.6835794245,316.6879523208L397.8692044245,320.2017023208L398.4260794245,323.0529523208L399.3542044245,325.2417023208L400.6535794245,326.7679523208L401.83920442450005,327.4942023208L403.3160794245,328.01295232079997L405.08420442449994,328.32420232079994ZM443.6934594245,299.9479523208L451.0234594245,299.9479523208L451.0234594245,334.6179523208L443.6934594245,334.6179523208L443.6934594245,320.2679523208L430.2834594245,320.2679523208L430.2834594245,334.6179523208L422.8934594245,334.6179523208L422.8934594245,299.9479523208L430.2834594245,299.9479523208L430.2834594245,314.0879523208L443.6934594245,314.0879523208ZM479.2939194245,334.6179523208L465.1539194245,309.1979523208L465.1539194245,334.6179523208L458.0839194245,334.6179523208L458.0839194245,299.9479523208L467.5439194245,299.9479523208L481.3239194245,325.7779523208L481.3239194245,299.9479523208L488.3439194245,299.9479523208L488.3439194245,334.6179523208ZM510.6355594245,299.7379523208L513.1574344245,299.8485773208L515.5230594245,300.1804523208L517.7324344245,300.73357732079995L519.7855594245,301.5079523208L521.9280594245,302.75170232079995L523.7255594245,304.3529523208L525.1780594245,306.3117023208L526.2855594245,308.6279523208L526.9243094244999,310.6623273208L527.3805594245,312.8654523208L527.6543094245,315.2373273208L527.7455594245,317.7779523208L527.6349344245,320.3404523208L527.3030594244999,322.7279523208L526.7499344245,324.9404523208L525.9755594245,326.9779523208L524.7068094245001,329.1204523207999L523.1405594245001,330.91795232079994L521.2768094245001,332.3704523208L519.1155594245,333.4779523208L517.3355594245,334.06857732080005L515.4255594245,334.49045232080005L513.3855594244999,334.7435773208L511.2155594245,334.8279523208L508.37368442449997,334.69107732080005L505.7280594245,334.2804523208L503.2786844245,333.5960773208L501.0255594245,332.6379523208L499.3130594245,331.60232732080004L497.81555942449995,330.3054523208L496.53305942450004,328.74732732079997L495.4655594245,326.9279523208L494.6211844245,324.8742023208L494.0180594245,322.6129523208L493.6561844245,320.1442023208L493.5355594245,317.4679523208L493.6127469245,315.0748273208L493.84430942449995,312.8604523208L494.23024692449997,310.8248273208L494.77055942449994,308.9679523208L495.4652469245,307.2898273208L496.3143094245,305.7904523208L497.3177469245,304.4698273208L498.4755594245,303.3279523208L500.7955594245,301.7760773208L503.59555942450004,300.6604523208L506.8755594245,299.9810773208ZM510.6955594245,305.5579523208L508.3280594245,305.7660773208L506.32555942449994,306.39045232079997L504.6880594245,307.4310773208L503.4155594245,308.8879523208L502.64118442449995,310.38607732080004L502.0880594245,312.2804523208L501.7561844245,314.5710773208L501.6455594245,317.2579523208L501.78243442449997,320.0967023207999L502.1930594245,322.53295232079995L502.8774344245,324.56670232079995L503.8355594245,326.1979523208L505.0849344245,327.4273273208L506.65305942449993,328.3054523208L508.53993442449996,328.8323273208L510.7455594245,329.0079523208L512.8799344245,328.8292023208L514.7130594245,328.29295232079994L516.2449344245,327.3992023208L517.4755594245,326.1479523208L518.4205594245,324.5229523208L519.0955594245,322.5079523208L519.5005594245,320.1029523208L519.6355594245,317.3079523208L519.5249344245001,314.7404523208L519.1930594245,312.4979523208L518.6399344245001,310.5804523208L517.8655594245,308.9879523208L516.6561844245,307.5098273208L515.0580594245,306.44545232080003L513.0711844245,305.79482732080004ZM532.5251194245,319.4379523208L532.5251194245,299.9479523208L539.8551194245,299.9479523208L539.8551194245,319.4379523208L539.9307444245001,321.12732732079996L540.0076194244999,322.50545232080003L540.0857444244999,323.5723273208L540.1651194245,324.3279523208L540.4432444245,325.4273273208L540.9176194244999,326.3354523208L541.5882444245,327.05232732080003L542.4551194245,327.5779523208L543.5969944245,327.9498273208L545.1026194245001,328.21545232079995L546.9719944245,328.37482732079997L549.2051194245,328.4279523208L556.2751194245,328.4279523208L556.2751194245,334.6179523208L548.4251194245,334.6179523208L545.8369944245001,334.57920232079994L543.6326194245,334.4629523208L541.8119944245001,334.2692023208L540.3751194245,333.9979523208L537.7751194245,332.9167023208L535.6951194245,331.3429523208L534.1351194245,329.27670232080004L533.0951194245,326.7179523208L532.8457444245,325.4454523208L532.6676194245,323.80795232080004L532.5607444245,321.8054523208ZM575.8184794245,299.7379523208L578.3403544245,299.8485773208L580.7059794245,300.1804523208L582.9153544244999,300.73357732079995L584.9684794245,301.5079523208L587.1109794245,302.75170232079995L588.9084794245,304.3529523208L590.3609794245,306.3117023208L591.4684794245,308.6279523208L592.1072294244999,310.6623273208L592.5634794245,312.8654523208L592.8372294244999,315.2373273208L592.9284794245,317.7779523208L592.8178544245,320.3404523208L592.4859794244999,322.7279523208L591.9328544245,324.9404523208L591.1584794245,326.9779523208L589.8897294245,329.1204523207999L588.3234794245001,330.91795232079994L586.4597294245001,332.3704523208L584.2984794245,333.4779523208L582.5184794245,334.06857732080005L580.6084794245,334.49045232080005L578.5684794245,334.7435773208L576.3984794245,334.8279523208L573.5566044245,334.69107732080005L570.9109794245,334.2804523208L568.4616044245001,333.5960773208L566.2084794245,332.6379523208L564.4959794245,331.60232732080004L562.9984794245,330.3054523208L561.7159794245001,328.74732732079997L560.6484794245,326.9279523208L559.8041044244999,324.8742023208L559.2009794245,322.6129523208L558.8391044245,320.1442023208L558.7184794245,317.4679523208L558.7956669245,315.0748273208L559.0272294245,312.8604523208L559.4131669244999,310.8248273208L559.9534794244998,308.9679523208L560.6481669244998,307.2898273208L561.4972294244999,305.7904523208L562.5006669244999,304.4698273208L563.6584794245,303.3279523208L565.9784794244999,301.7760773208L568.7784794244999,300.6604523208L572.0584794244999,299.9810773208ZM575.8784794245,305.5579523208L573.5109794245,305.7660773208L571.5084794245,306.39045232079997L569.8709794245001,307.4310773208L568.5984794245,308.8879523208L567.8241044245001,310.38607732080004L567.2709794245,312.2804523208L566.9391044244999,314.5710773208L566.8284794245,317.2579523208L566.9653544245,320.0967023207999L567.3759794245,322.53295232079995L568.0603544245,324.56670232079995L569.0184794245,326.1979523208L570.2678544245,327.4273273208L571.8359794245,328.3054523208L573.7228544244999,328.8323273208L575.9284794245,329.0079523208L578.0628544245,328.8292023208L579.8959794245,328.29295232079994L581.4278544245,327.3992023208L582.6584794245,326.1479523208L583.6034794244999,324.5229523208L584.2784794245,322.5079523208L584.6834794245,320.1029523208L584.8184794245,317.3079523208L584.7078544245,314.7404523208L584.3759794245,312.4979523208L583.8228544245001,310.5804523208L583.0484794245,308.9879523208L581.8391044245,307.5098273208L580.2409794245,306.44545232080003L578.2541044245,305.79482732080004ZM610.8580394245,320.2179523208L610.8580394245,314.0379523208L627.8580394245,314.0379523208L627.8580394245,334.6179523208L612.3680394245,334.6179523208L610.4661644245,334.58045232079996L608.7705394245002,334.4679523208L607.2811644245,334.2804523208L605.9980394245,334.0179523208L603.7405394245,333.19295232080003L601.7080394245,331.9179523208L600.4283519245,330.7702960708L599.3192894245,329.43232732079997L598.3808519245,327.90404607079995L597.6130394245,326.1854523208L597.0158519245,324.2765460708L596.5892894245001,322.1773273208L596.3333519245,319.8877960708L596.2480394245,317.4079523208L596.4105394245,314.19732732080007L596.8980394245,311.2654523208L597.7105394245,308.61232732080003L598.8480394245,306.2379523208L599.8999144244999,304.7092023208L601.1255394245,303.40295232079995L602.5249144244999,302.3192023208L604.0980394245,301.4579523208L605.8861644244998,300.79732732080004L607.9205394245,300.3254523208L610.2011644244999,300.04232732080004L612.7280394245,299.9479523208L627.8580394245,299.9479523208L627.8580394245,306.1279523208L613.5580394245,306.1279523208L611.4067894245,306.25482732079996L609.5730394244999,306.6354523208L608.0567894245,307.2698273208L606.8580394245,308.1579523208L605.7642894245,309.5904523208L604.9830394245,311.4979523208L604.5142894245,313.88045232080003L604.3580394245,316.7379523208L604.5205394245,319.75295232080003L605.0080394245,322.4579523208L605.7830394245,324.6754523208L606.8080394245,326.2479523208L607.9780394244999,327.2329523208L609.5280394245,327.9079523208L611.4755394245,328.2979523208L613.8180394245,328.4279523208L620.5280394245,328.4279523208L620.5280394245,320.2179523208ZM643.4462194245,334.6179523208L643.4462194245,319.4379523208L630.6062194245,299.9479523208L639.2362194245,299.9479523208L647.1962194245,313.5179523208L655.5562194245,299.9479523208L664.3462194245,299.9479523208L650.8262194245,319.6979523208L650.8262194245,334.6179523208Z"></path></svg>